<svg width="16" height="16" viewBox="0 0 16 16" fill="none" xmlns="http://www.w3.org/2000/svg">
<g clip-path="url(#clip0_7418_631)">
<path fill-rule="evenodd" clip-rule="evenodd" d="M0.833313 5.34082C0.833313 3.96011 1.9526 2.84082 3.33331 2.84082H12.6666C14.0474 2.84082 15.1666 3.96011 15.1666 5.34082V12.6658C15.1666 14.0465 14.0474 15.1658 12.6666 15.1658H3.33331C1.9526 15.1658 0.833313 14.0465 0.833313 12.6658V5.34082ZM3.33331 3.84082C2.50489 3.84082 1.83331 4.51239 1.83331 5.34082V12.6658C1.83331 13.4943 2.50489 14.1658 3.33331 14.1658H12.6666C13.495 14.1658 14.1666 13.4943 14.1666 12.6658V5.34082C14.1666 4.51239 13.495 3.84082 12.6666 3.84082H3.33331Z" fill="#6C757D"/>
<path fill-rule="evenodd" clip-rule="evenodd" d="M4.66645 0.833008C4.9426 0.832915 5.16653 1.05669 5.16663 1.33283L5.16731 3.34133C5.16741 3.61747 4.94363 3.84141 4.66748 3.8415C4.39134 3.84159 4.16741 3.61781 4.16731 3.34167L4.16663 1.33318C4.16653 1.05703 4.39031 0.833101 4.66645 0.833008Z" fill="#6C757D"/>
<path fill-rule="evenodd" clip-rule="evenodd" d="M11.3333 0.833008C11.6094 0.833008 11.8333 1.05687 11.8333 1.33301V3.08739C11.8333 3.36353 11.6094 3.58739 11.3333 3.58739C11.0572 3.58739 10.8333 3.36353 10.8333 3.08739V1.33301C10.8333 1.05687 11.0572 0.833008 11.3333 0.833008Z" fill="#6C757D"/>
<path fill-rule="evenodd" clip-rule="evenodd" d="M3.5 6.24512C3.5 5.96898 3.72386 5.74512 4 5.74512H12C12.2761 5.74512 12.5 5.96898 12.5 6.24512C12.5 6.52126 12.2761 6.7451 12 6.7451H4C3.72386 6.7451 3.5 6.52126 3.5 6.24512Z" fill="#6C757D"/>
</g>
<defs>
<clipPath id="clip0_7418_631">
<rect width="16" height="16" fill="white"/>
</clipPath>
</defs>
</svg>
