<?xml version="1.0" standalone="no"?>
<!DOCTYPE svg PUBLIC "-//W3C//DTD SVG 20010904//EN"
 "http://www.w3.org/TR/2001/REC-SVG-20010904/DTD/svg10.dtd">
<svg version="1.0" xmlns="http://www.w3.org/2000/svg"
 width="1024.000000pt" height="1024.000000pt" viewBox="0 0 1024.000000 1024.000000"
 preserveAspectRatio="xMidYMid meet">

<g transform="translate(0.000000,1024.000000) scale(0.100000,-0.100000)"
fill="#000000" stroke="none">
<path d="M5012 8713 c-40 -19 -126 -104 -165 -160 -32 -47 -53 -102 -63 -164
-6 -37 -5 -41 9 -36 10 4 59 14 110 23 123 22 272 20 365 -4 40 -10 75 -15 78
-10 7 11 -13 113 -27 141 -43 80 -126 164 -205 206 -46 25 -59 26 -102 4z"/>
<path d="M4472 8457 c-12 -13 -22 -35 -22 -50 0 -53 76 -105 127 -86 22 8 53
56 53 83 0 8 -12 28 -26 45 -34 40 -98 44 -132 8z"/>
<path d="M5576 8449 c-23 -18 -27 -27 -24 -67 6 -85 86 -109 128 -39 55 90
-23 169 -104 106z"/>
<path d="M5765 8295 c-57 -56 -14 -164 58 -150 82 17 107 124 36 160 -40 21
-66 19 -94 -10z"/>
<path d="M4280 8290 c-56 -56 17 -169 91 -141 57 21 72 90 29 136 -30 32 -90
35 -120 5z"/>
<path d="M4908 8265 c-132 -22 -235 -67 -345 -149 -109 -82 -223 -244 -223
-317 0 -18 6 -15 49 24 95 85 309 198 425 225 102 24 385 23 484 -1 168 -40
335 -120 450 -214 24 -19 46 -33 49 -30 11 11 -29 107 -64 154 -159 214 -381
324 -648 322 -55 -1 -134 -7 -177 -14z"/>
<path d="M5944 8100 c-88 -36 -60 -160 35 -160 48 0 81 35 81 85 0 60 -61 99
-116 75z"/>
<path d="M4123 8080 c-12 -10 -24 -29 -28 -40 -8 -27 23 -80 58 -100 24 -13
30 -13 54 0 64 36 78 95 33 140 -27 27 -89 27 -117 0z"/>
<path d="M4963 7960 c-167 -17 -364 -88 -503 -181 -92 -61 -231 -199 -280
-276 l-30 -46 24 -22 c13 -12 31 -34 41 -48 l17 -27 42 47 c76 87 226 202 321
248 117 56 169 72 290 90 175 26 341 16 520 -32 128 -34 292 -134 428 -262
l79 -75 40 43 40 44 -19 34 c-30 57 -189 219 -261 266 -87 58 -234 131 -303
151 -143 41 -315 59 -446 46z"/>
<path d="M4015 7805 c-33 -32 -32 -75 1 -114 32 -39 71 -41 113 -5 23 19 31
34 31 58 0 76 -92 115 -145 61z"/>
<path d="M6016 7811 c-9 -10 -19 -35 -23 -54 -5 -31 -1 -40 25 -67 39 -38 76
-39 114 -3 34 33 37 79 7 117 -16 21 -29 26 -63 26 -29 0 -48 -6 -60 -19z"/>
<path d="M4975 7639 c-236 -14 -443 -107 -613 -275 l-73 -72 33 -66 32 -65 50
47 c157 147 337 227 565 252 154 17 370 -13 494 -68 106 -47 273 -172 303
-227 10 -18 13 -16 31 27 12 25 31 56 42 67 l22 22 -31 39 c-17 22 -55 59 -83
83 -179 150 -329 214 -544 232 -37 3 -79 7 -93 9 -14 1 -74 -1 -135 -5z"/>
<path d="M3420 7544 c-249 -43 -434 -124 -597 -261 -29 -25 -53 -48 -53 -52 0
-4 33 -13 74 -20 137 -23 337 -143 490 -294 168 -166 270 -351 326 -593 28
-120 43 -288 32 -359 -6 -33 -9 -61 -8 -62 1 -1 50 25 109 58 178 100 310 246
358 397 41 129 36 350 -11 475 -82 219 -344 426 -563 444 -37 3 -70 10 -73 15
-11 18 35 21 149 10 134 -14 246 -47 312 -92 68 -47 169 -155 206 -221 51 -90
66 -107 79 -89 23 36 -7 184 -58 287 -84 165 -248 288 -452 339 -55 14 -273
26 -320 18z"/>
<path d="M6415 7534 c-94 -20 -238 -92 -306 -153 -59 -52 -139 -161 -183 -248
-34 -68 -69 -198 -62 -229 13 -52 49 -19 126 116 69 123 206 225 355 264 72
20 241 32 281 21 25 -7 19 -10 -47 -20 -143 -24 -337 -130 -454 -250 -130
-133 -185 -280 -185 -494 0 -69 6 -102 35 -188 41 -122 69 -167 160 -251 52
-49 94 -76 198 -126 73 -35 133 -62 135 -61 2 1 -2 33 -9 70 -7 39 -9 115 -6
183 13 316 166 602 443 831 50 42 127 96 170 121 87 50 222 99 272 100 17 0
32 4 32 8 0 28 -183 163 -295 217 -156 76 -245 97 -430 101 -118 3 -178 0
-230 -12z"/>
<path d="M5144 7296 c4 -10 16 -67 28 -127 24 -123 19 -163 -28 -218 -33 -40
-56 -46 -99 -25 -76 36 -97 107 -71 245 18 94 20 129 9 129 -16 -1 -103 -140
-119 -189 -26 -80 -16 -196 22 -258 64 -103 166 -138 260 -90 123 62 180 178
149 301 -9 33 -30 85 -48 115 -35 59 -112 147 -103 117z"/>
<path d="M4400 6901 c0 -4 18 -25 41 -46 22 -22 56 -68 75 -101 48 -85 74
-109 138 -123 32 -7 71 -25 93 -43 46 -36 50 -28 33 69 -25 148 -109 230 -244
239 -34 3 -78 6 -98 8 -21 2 -38 1 -38 -3z"/>
<path d="M5506 6875 c-50 -17 -104 -69 -127 -122 -23 -49 -37 -187 -21 -197 6
-4 21 7 33 24 14 18 43 38 76 50 77 29 90 39 135 108 22 35 60 80 84 101 24
21 41 41 37 45 -12 12 -178 5 -217 -9z"/>
<path d="M6774 6587 c-3 -8 18 -71 45 -140 122 -305 180 -681 152 -977 -66
-686 -461 -1237 -1021 -1424 -133 -44 -206 -56 -350 -56 -141 0 -218 12 -336
51 -232 76 -367 224 -447 489 -15 47 -32 94 -40 104 -18 24 -45 15 -51 -16 -2
-13 -13 -72 -25 -133 -26 -135 -26 -208 -2 -302 36 -138 97 -243 202 -350 186
-188 432 -273 794 -273 256 0 543 78 773 210 152 87 258 168 363 278 256 266
430 634 479 1014 14 111 12 353 -5 485 -38 293 -146 574 -312 811 -127 181
-205 263 -219 229z"/>
<path d="M3308 6553 c-14 -21 -59 -101 -101 -178 -186 -341 -262 -624 -274
-1020 -9 -301 26 -527 120 -766 115 -294 271 -524 523 -771 323 -316 603 -484
1079 -649 143 -49 380 -119 470 -139 98 -21 297 -91 383 -134 297 -149 474
-426 433 -677 -40 -247 -232 -401 -481 -387 -109 7 -173 34 -248 108 -76 75
-97 126 -97 235 0 78 4 97 27 141 38 72 72 109 121 133 81 39 186 19 236 -45
25 -32 27 -68 6 -118 -19 -45 -8 -46 32 -3 77 79 70 189 -18 276 -56 57 -84
66 -194 66 -90 0 -106 -3 -156 -29 -116 -58 -220 -178 -255 -294 -11 -36 -17
-90 -17 -147 -1 -259 184 -488 443 -549 83 -20 246 -20 330 0 36 8 108 35 160
61 80 39 108 59 180 132 125 126 179 230 216 412 12 62 15 112 11 198 -10 225
-76 382 -230 546 -166 179 -385 299 -772 425 -249 80 -573 211 -718 288 -105
56 -278 167 -352 225 -192 152 -412 378 -528 543 -240 344 -355 653 -388 1049
-18 219 1 582 41 760 6 28 29 112 52 188 34 115 39 140 27 148 -24 15 -36 10
-61 -28z"/>
<path d="M5463 6386 c-37 -17 -73 -80 -94 -166 -20 -84 -18 -244 5 -310 27
-79 94 -210 165 -322 33 -54 76 -132 93 -175 32 -75 33 -83 33 -218 0 -138 -1
-141 -33 -210 -35 -74 -89 -138 -159 -186 -39 -27 -123 -64 -123 -54 0 2 21
32 48 67 74 98 96 157 96 258 0 94 -16 157 -67 254 -40 76 -114 150 -265 265
-244 186 -337 316 -428 600 -31 97 -62 182 -69 190 -17 17 -76 7 -97 -17 -27
-30 -29 -58 -14 -164 19 -124 36 -186 81 -283 78 -172 212 -325 435 -494 171
-131 227 -202 252 -323 16 -75 4 -137 -40 -203 -32 -49 -47 -62 -117 -96 -71
-35 -93 -40 -200 -50 -66 -7 -126 -15 -133 -18 -19 -11 56 -91 115 -124 154
-83 431 -77 592 15 74 42 185 158 207 217 10 25 28 62 40 81 13 19 33 73 45
120 57 214 5 442 -159 690 -64 97 -74 118 -108 220 -27 80 -28 95 -29 265 0
172 -1 180 -20 182 -11 2 -34 -4 -52 -11z"/>
<path d="M5620 6090 c0 -57 40 -193 66 -221 56 -62 182 39 142 115 -7 13 -57
54 -110 90 l-98 65 0 -49z"/>
<path d="M4388 6066 c-82 -56 -95 -84 -63 -145 31 -60 122 -75 181 -29 20 17
24 26 19 50 -8 34 -54 150 -64 160 -4 4 -36 -12 -73 -36z"/>
<path d="M3919 5763 c-11 -13 -14 -75 -14 -306 0 -206 -3 -291 -11 -294 -22
-7 -27 34 -32 269 -4 216 -6 239 -24 257 -25 28 -44 26 -75 -5 -24 -24 -25
-30 -20 -87 12 -116 20 -424 13 -453 l-8 -29 -19 24 c-17 21 -19 41 -19 208 0
111 -4 192 -11 204 -15 29 -49 39 -80 23 -48 -24 -53 -53 -46 -317 7 -265 19
-346 64 -428 34 -64 116 -139 191 -176 52 -26 67 -28 167 -28 99 0 116 3 168
27 116 54 234 219 256 358 15 90 14 263 -1 278 -17 17 -69 15 -94 -3 -33 -22
-51 -72 -59 -157 -5 -54 -13 -87 -28 -110 -23 -34 -97 -78 -131 -78 -16 0 -10
11 32 53 l52 53 0 300 c0 299 0 301 -22 321 -37 34 -64 37 -82 11 -14 -19 -16
-59 -16 -258 0 -129 -4 -241 -9 -249 -5 -8 -16 -11 -27 -7 -16 6 -17 26 -11
286 5 269 5 280 -14 305 -24 29 -69 34 -90 8z"/>
</g>
</svg>
